<!-- icon666.com - MILLIONS vector ICONS FREE --><svg id="Layer_1" enable-background="new 0 0 450 450" viewBox="0 0 450 450" xmlns="http://www.w3.org/2000/svg"><g><g><g clip-rule="evenodd" fill-rule="evenodd"><path d="m345.4 246c-13.3 0-24.1 10.8-24.1 24.1 1.3 31.9 46.8 31.9 48.1 0 0-13.3-10.8-24.1-24-24.1zm13.6 25.6c-1.2 11.4-15.3 16.4-23.4 8.2-8.1-8-3.1-22.2 8.2-23.4 8.6-1 16.3 6.6 15.2 15.2z"></path><path d="m345.3 264.4c-5 0-7.5 6.1-4 9.6 3.3 3.3 9.1 1.3 9.6-3.4.5-3.2-2.3-6.2-5.6-6.2z"></path><path d="m108.7 246c-13.3 0-24.1 10.8-24.1 24.1 1.3 31.9 46.8 31.9 48.1 0 .1-13.3-10.7-24.1-24-24.1zm13.7 25.6c-1.2 11.4-15.3 16.4-23.4 8.2-8.1-8-3.1-22.2 8.2-23.4 8.6-1 16.2 6.6 15.2 15.2z"></path><path d="m108.7 264.4c-5 0-7.5 6.1-4 9.6 3.3 3.3 9.1 1.3 9.6-3.4.4-3.2-2.3-6.2-5.6-6.2z"></path><path d="m92.4 179.4-18.6 23.4h72.4v-23.4z"></path><path d="m154.3 179.4h51.9v23.3h-51.9z"></path><path d="m281.5 202.8-18.5-23.4h-48.7v23.4z"></path><path d="m108.7 237.9c16.4 0 29.9 12.3 31.9 28.1h172.8c2-15.8 15.5-28.1 31.9-28.1s29.9 12.3 31.9 28.1h21c3.4 0 6.6-1.5 8.8-4.2s3-6.1 2.3-9.4l-6.8-32.6c-1.1-5.2-5.7-9-11-9h-73.5c-1.2 0-2.4-.6-3.2-1.5l-37.8-47.6c-2.2-2.7-5.4-4.3-8.8-4.3h-181c-3.5 0-6.7 1.6-8.8 4.3l-35 44c-1.6 2-2.5 4.5-2.5 7v42c0 6.2 5.1 11.3 11.3 11.3h24.6c2-15.8 15.6-28.1 31.9-28.1zm68.8-6.1h-14.5c-2.2 0-4.1-1.8-4.1-4.1 0-2.2 1.8-4.1 4.1-4.1h14.5c2.2 0 4.1 1.8 4.1 4.1s-1.8 4.1-4.1 4.1zm60.1 0h-14.6c-2.2 0-4.1-1.8-4.1-4.1 0-2.2 1.8-4.1 4.1-4.1h14.5c2.2 0 4.1 1.8 4.1 4.1s-1.8 4.1-4 4.1zm27.3-60.5c1.2 0 2.4.6 3.2 1.5l25 31.4c1 1.2 1.2 2.9.5 4.3s-2.1 2.3-3.7 2.3h-224.5c-1.6 0-3-.9-3.7-2.3s-.5-3.1.5-4.3l25-31.4c.8-1 1.9-1.5 3.2-1.5z"></path></g></g></g></svg>