<!-- icon666.com - MILLIONS vector ICONS FREE --><svg viewBox="0 0 48 48" xmlns="http://www.w3.org/2000/svg"><g id="_6._Cabriolet_car" data-name="6. Cabriolet car"><path d="m45 27a1 1 0 0 1 0-2h2a4 4 0 0 0 -3.32-3.56l-8.2-1.36c-3.37-2.89-4.94-4.58-8.21-5.55a1 1 0 0 0 -.56 1.92c2.55.76 3.79 2 5.61 3.55h-10.32v-2a1 1 0 0 0 -2 0v2h-7v-1a1 1 0 0 0 -2 0v1h-9a1 1 0 0 0 0 2c-1.11 2.26-1 1.78-1 5a3 3 0 0 0 3 3h2a6 6 0 0 1 12 0h12a6 6 0 0 1 12 0h2a3 3 0 0 0 3-3zm-20-2h-2a1 1 0 0 1 0-2h2a1 1 0 0 1 0 2z"></path><path d="m12 26a4 4 0 1 0 4 4 4 4 0 0 0 -4-4zm0 6a2 2 0 1 1 2-2 2 2 0 0 1 -2 2z"></path><path d="m36 26a4 4 0 1 0 4 4 4 4 0 0 0 -4-4zm0 6a2 2 0 1 1 2-2 2 2 0 0 1 -2 2z"></path></g></svg>