<!-- icon666.com - MILLIONS vector ICONS FREE --><svg id="Layer_1" enable-background="new 0 0 512 512" viewBox="0 0 512 512" xmlns="http://www.w3.org/2000/svg"><path d="m480 221h-23.316l-61.708-109.916c-1.416-2.522-4.083-4.084-6.976-4.084h-153c-3.885 0-7.208 2.791-7.879 6.618l-18.84 107.382c-40.612 0-159.39 0-200.281 0-4.418 0-8 3.582-8 8v112c0 4.418 3.582 8 8 8h72.518c3.951 31.525 30.903 56 63.482 56s59.531-24.475 63.482-56h97.036c3.951 31.525 30.903 56 63.482 56s59.531-24.475 63.482-56h48.518c17.645 0 32-14.355 32-32v-64c0-17.645-14.355-32-32-32zm-336 168c-26.467 0-48-21.533-48-48s21.533-48 48-48 48 21.533 48 48-21.533 48-48 48zm224 0c-26.468 0-48-21.533-48-48s21.532-48 48-48 48 21.533 48 48-21.532 48-48 48zm-83.855-168 8.854-66h108.283l37.053 66zm211.855 72h-16c-4.411 0-8-3.589-8-8s3.589-8 8-8h16z"></path><path d="m144 325c-8.822 0-16 7.178-16 16s7.178 16 16 16 16-7.178 16-16-7.178-16-16-16z"></path><path d="m368 325c-8.822 0-16 7.178-16 16s7.178 16 16 16 16-7.178 16-16-7.178-16-16-16z"></path></svg>